# xmcd
#
# Track frame offsets:
#	150
#	17264
#	36548
#	53980
#	73510
#	90505
#	118009
#	136171
#	153199
#	168445
#	184925
#	202613
#	228705
#	253624
#
# Disc length: 3627 seconds
#
# Revision: 1
# Processed by: cddbd v1.5PL3 Copyright (c) Steve Scherf et al.
# Submitted via: CDmax 2.0
#
DISCID=b30e290e
DTITLE=Proem - Socially Inept
DYEAR=2004
DGENRE=Blues
TTITLE0=I Don't Know How To Tell
TTITLE1=Bites Their Tongue
TTITLE2=Invisible For All
TTITLE3=Little_a
TTITLE4=Pinching Point
TTITLE5=Place Gun To Head
TTITLE6=When Frailty Fails
TTITLE7=Out Of Phase
TTITLE8=Da.vironment
TTITLE9=Carpark Kittens (cordless rmx of Marumari)
TTITLE10=Deep Like Airline Failure
TTITLE11=Sleep Is For Lunch
TTITLE12=No.imback
TTITLE13=Socially Inept
EXTD=
EXTT0=
EXTT1=
EXTT2=
EXTT3=
EXTT4=
EXTT5=
EXTT6=
EXTT7=
EXTT8=
EXTT9=
EXTT10=
EXTT11=
EXTT12=
EXTT13=
PLAYORDER=
